<svg width="14" height="14" viewBox="0 0 14 14" fill="none" xmlns="http://www.w3.org/2000/svg">
<g id="004-instagram">
<path id="Shape" fill-rule="evenodd" clip-rule="evenodd" d="M4.5625 0.5H9.4375C11.6808 0.5 13.5 2.31919 13.5 4.5625V9.4375C13.5 11.6808 11.6808 13.5 9.4375 13.5H4.5625C2.31919 13.5 0.5 11.6808 0.5 9.4375V4.5625C0.5 2.31919 2.31919 0.5 4.5625 0.5ZM9.43754 12.2812C11.0057 12.2812 12.2813 11.0056 12.2813 9.4375V4.5625C12.2813 2.99437 11.0057 1.71875 9.43754 1.71875H4.56254C2.99441 1.71875 1.71879 2.99437 1.71879 4.5625V9.4375C1.71879 11.0056 2.99441 12.2812 4.56254 12.2812H9.43754Z" fill="#1C2661"/>
<path id="Shape_2" fill-rule="evenodd" clip-rule="evenodd" d="M3.75024 6.99963C3.75024 5.20482 5.20543 3.74963 7.00024 3.74963C8.79506 3.74963 10.2502 5.20482 10.2502 6.99963C10.2502 8.79445 8.79506 10.2496 7.00024 10.2496C5.20543 10.2496 3.75024 8.79445 3.75024 6.99963ZM4.96905 6.99956C4.96905 8.11919 5.88067 9.03081 7.0003 9.03081C8.11992 9.03081 9.03155 8.11919 9.03155 6.99956C9.03155 5.87912 8.11992 4.96831 7.0003 4.96831C5.88067 4.96831 4.96905 5.87912 4.96905 6.99956Z" fill="#1C2661"/>
<circle id="Oval" cx="10.4935" cy="3.5063" r="0.433063" fill="#1C2661"/>
</g>
</svg>
