<svg width="64" height="64" viewBox="0 0 64 64" fill="none" xmlns="http://www.w3.org/2000/svg">
<g id="typcn:chart-pie-outline">
<path id="Vector" d="M48.6054 20.2906L50.0907 18.8C50.6122 18.2754 51.0191 17.6483 51.2854 16.9583C51.5518 16.2682 51.6718 15.5304 51.638 14.7915C51.6041 14.0526 51.4171 13.3288 51.0888 12.6661C50.7605 12.0033 50.298 11.4159 49.7307 10.9413C44.0901 6.22009 37.1398 3.33815 29.8134 2.68263L29.3334 2.66663C28.0018 2.6682 26.7185 3.16537 25.7334 4.06129C24.6294 5.07196 24.0001 6.50129 24.0001 7.99996V13.944C14.2481 16.2506 7.11206 25.112 7.11206 35.2933C7.11206 47.4186 16.9467 57.2773 29.0427 57.2773C33.2934 57.2773 37.3361 56 40.8854 53.6906C41.6241 54.0693 42.4401 54.2933 43.2854 54.2933L43.5761 54.2826C44.3265 54.2417 45.0598 54.0423 45.7276 53.6976C46.3954 53.3529 46.9827 52.8706 47.4507 52.2826C51.2482 47.5087 53.3195 41.5907 53.3281 35.4906C53.3213 30.0639 51.6751 24.7657 48.6054 20.2906ZM29.0427 51.944C19.8747 51.944 12.4454 44.496 12.4454 35.2933C12.4455 31.3019 13.8829 27.4441 16.4944 24.4257C19.1059 21.4073 22.7169 19.4301 26.6667 18.856V35.944L38.9574 48.6213C36.1018 50.7777 32.621 51.9442 29.0427 51.944ZM29.3334 32.0666V7.99996C35.5775 8.56265 41.5007 11.0199 46.3094 15.0426L29.3334 32.0666ZM29.9041 35.4506L43.2881 22.0426C46.3413 25.8599 48.0049 30.6025 48.0054 35.4906C48.0117 40.3864 46.3476 45.1379 43.2881 48.96L29.9041 35.4506Z" fill="white"/>
</g>
</svg>
