<svg width="14" height="12" viewBox="0 0 14 12" fill="none" xmlns="http://www.w3.org/2000/svg">
<path id="Path" d="M13.6666 1.86586C13.1707 2.08336 12.6424 2.22752 12.0916 2.29752C12.6582 1.95919 13.0907 1.42753 13.2941 0.786705C12.7657 1.1017 12.1824 1.3242 11.5607 1.44836C11.0591 0.914204 10.3441 0.583374 9.5641 0.583374C8.05079 0.583374 6.83247 1.81169 6.83247 3.31751C6.83247 3.53417 6.8508 3.74251 6.8958 3.94084C4.62333 3.83 2.61251 2.74085 1.2617 1.0817C1.02587 1.49086 0.887534 1.95919 0.887534 2.46335C0.887534 3.41001 1.37503 4.24917 2.10169 4.73499C1.66253 4.72666 1.2317 4.59916 0.866701 4.39833C0.866701 4.40666 0.866701 4.4175 0.866701 4.42833C0.866701 5.75665 1.81419 6.85997 3.05668 7.11413C2.83418 7.17497 2.59168 7.20413 2.34002 7.20413C2.16502 7.20413 1.98836 7.19413 1.82252 7.15747C2.17669 8.23996 3.18168 9.03578 4.37666 9.06161C3.44667 9.78911 2.26585 10.2274 0.987533 10.2274C0.763369 10.2274 0.548372 10.2174 0.333374 10.1899C1.54419 10.9708 2.97918 11.4166 4.52666 11.4166C9.5566 11.4166 12.3066 7.24997 12.3066 3.63834C12.3066 3.51751 12.3024 3.40084 12.2966 3.28501C12.8391 2.90002 13.2949 2.41919 13.6666 1.86586Z" fill="#1C2661"/>
</svg>
