<svg width="64" height="64" viewBox="0 0 64 64" fill="none" xmlns="http://www.w3.org/2000/svg">
<g id="typcn:pencil">
<path id="Vector" d="M56 18.344L45.656 8.00003C45.2851 7.62777 44.8444 7.3324 44.3591 7.13085C43.8738 6.92931 43.3535 6.82556 42.828 6.82556C42.3025 6.82556 41.7822 6.92931 41.2969 7.13085C40.8116 7.3324 40.3709 7.62777 40 8.00003L10.8293 37.1707C10.048 37.952 9.34133 39.1094 8.82933 40.3387C8.31733 41.5734 8 42.896 8 44V56H20C21.104 56 22.4213 55.6827 23.656 55.1707C24.8907 54.6587 26.0453 53.952 26.8267 53.1707L56 24C56.3723 23.6291 56.6676 23.1884 56.8692 22.7031C57.0707 22.2178 57.1745 21.6975 57.1745 21.172C57.1745 20.6465 57.0707 20.1262 56.8692 19.6409C56.6676 19.1556 56.3723 18.7149 56 18.344ZM15.3813 40.1627L37.496 18.048L40.7813 21.3334L18.6667 43.448L15.3813 40.1627ZM20 50.6667H16L13.3333 48V44C13.3333 43.7947 13.4213 43.1867 13.7547 42.3867C13.7813 42.3334 21.6667 50.2214 21.6667 50.2214C20.808 50.5787 20.2053 50.6667 20 50.6667ZM23.8373 48.6187L20.552 45.3334L42.6667 23.2187L45.952 26.504L23.8373 48.6187ZM47.8373 24.6187L39.3787 16.16L42.8267 12.712L51.28 21.1707L47.8373 24.6187Z" fill="white"/>
</g>
</svg>
