<svg width="64" height="64" viewBox="0 0 64 64" fill="none" xmlns="http://www.w3.org/2000/svg">
<g id="typcn:book">
<path id="Vector" d="M48 1H18.6667C18.3164 0.999542 17.9696 1.08703 17.646 1.25743C17.3225 1.42783 17.0286 1.67779 16.7813 1.99295L8.78133 12.1596L8.62933 12.3697C8.24892 12.9405 8.02849 13.6558 8.00267 14.4031L8 14.5827V51.8333C8 57.4386 11.5893 62 16 62H40C41.6541 61.9974 43.267 61.3447 44.6176 60.1312C45.9683 58.9178 46.9904 57.2031 47.544 55.2222H49.3333C53.072 55.2222 56 50.7591 56 45.0556V11.1667C56 5.56145 52.4107 1 48 1ZM16 55.2222C14.5307 55.2222 13.3333 53.704 13.3333 51.8333V17.9444H18.6667V55.2222H16ZM42.6667 51.8333C42.6667 53.704 41.4693 55.2222 40 55.2222H21.3333V17.9444H40C41.4693 17.9444 42.6667 19.4627 42.6667 21.3333V51.8333ZM50.6667 45.0556C50.6667 47.1567 49.8027 48.4444 49.3333 48.4444H48V21.3333C48 15.7281 44.4107 11.1667 40 11.1667H17.104L19.7707 7.77778H48C49.4693 7.77778 50.6667 9.296 50.6667 11.1667V45.0556Z" fill="white"/>
</g>
</svg>
